<svg width="21" height="21" viewBox="0 0 21 21" fill="none" xmlns="http://www.w3.org/2000/svg">
<path d="M14.0175 15.4088C12.4351 16.637 10.4441 17.2161 8.44983 17.0281C6.45553 16.8401 4.60781 15.8992 3.2828 14.3969C1.95779 12.8946 1.25507 10.9438 1.3177 8.94167C1.38032 6.93951 2.20358 5.03645 3.61989 3.61989C5.03645 2.20358 6.93951 1.38032 8.94167 1.3177C10.9438 1.25507 12.8946 1.95779 14.3969 3.2828C15.8992 4.60781 16.8401 6.45553 17.0281 8.44983C17.2161 10.4441 16.637 12.4351 15.4088 14.0175L19.3988 18.0075C19.5283 18.1278 19.6231 18.2809 19.673 18.4505C19.7229 18.6202 19.7261 18.8001 19.6823 18.9714C19.6385 19.1427 19.5493 19.2991 19.4241 19.4239C19.2989 19.5488 19.1423 19.6376 18.9709 19.681C18.7998 19.7248 18.62 19.7218 18.4505 19.6721C18.2809 19.6224 18.1279 19.528 18.0075 19.3988L14.0175 15.4088ZM15.0938 9.18752C15.1054 8.40475 14.9613 7.62747 14.6699 6.9009C14.3784 6.17434 13.9453 5.51298 13.3959 4.95531C12.8465 4.39763 12.1917 3.95477 11.4695 3.65249C10.7474 3.35021 9.97234 3.19455 9.18949 3.19455C8.40663 3.19455 7.63159 3.35021 6.90945 3.65249C6.1873 3.95477 5.53248 4.39763 4.98306 4.95531C4.43364 5.51298 4.00059 6.17434 3.70911 6.9009C3.41763 7.62747 3.27353 8.40475 3.28521 9.18752C3.30833 10.7382 3.94055 12.2175 5.04531 13.3059C6.15006 14.3943 7.63865 15.0044 9.18949 15.0044C10.7403 15.0044 12.2289 14.3943 13.3337 13.3059C14.4384 12.2175 15.0706 10.7382 15.0938 9.18752Z" fill="black" fill-opacity="0.55"/>
</svg>
