<svg width="22" height="22" viewBox="0 0 22 22" fill="none" xmlns="http://www.w3.org/2000/svg">
<path d="M2.10215 8.12132C2.50828 6.8664 3.17558 5.71173 4.06015 4.73332C4.1333 4.65248 4.22882 4.59521 4.33458 4.56877C4.44034 4.54233 4.55157 4.54791 4.65415 4.58482L6.76395 5.33942C6.91415 5.39305 7.07421 5.41338 7.23305 5.399C7.39188 5.38462 7.54569 5.33588 7.68382 5.25614C7.82194 5.17641 7.94107 5.06759 8.03296 4.93724C8.12484 4.80688 8.18728 4.65811 8.21595 4.50122L8.61855 2.29462C8.638 2.1872 8.68897 2.088 8.76497 2.00965C8.84098 1.93129 8.93858 1.87732 9.04535 1.85462C10.334 1.5802 11.6661 1.5802 12.9548 1.85462C13.0615 1.87732 13.1591 1.93129 13.2351 2.00965C13.3111 2.088 13.3621 2.1872 13.3816 2.29462L13.7842 4.50122C13.8128 4.65811 13.8753 4.80688 13.9671 4.93724C14.059 5.06759 14.1782 5.17641 14.3163 5.25614C14.4544 5.33588 14.6082 5.38462 14.7671 5.399C14.9259 5.41338 15.086 5.39305 15.2362 5.33942L17.3471 4.58482C17.4497 4.54805 17.561 4.54263 17.6668 4.56927C17.7726 4.59591 17.868 4.65339 17.9411 4.73442C18.8255 5.71251 19.4928 6.86679 19.8991 8.12132C19.9325 8.22505 19.9343 8.33637 19.9043 8.44114C19.8744 8.54592 19.814 8.63943 19.7308 8.70982L18.0203 10.1618C17.8987 10.2651 17.8011 10.3935 17.7342 10.5383C17.6673 10.683 17.6326 10.8406 17.6326 11C17.6326 11.1595 17.6673 11.317 17.7342 11.4618C17.8011 11.6065 17.8987 11.735 18.0203 11.8382L19.7308 13.2902C19.8138 13.3607 19.874 13.4543 19.9037 13.5591C19.9335 13.6638 19.9315 13.7751 19.898 13.8787C19.4918 15.1336 18.8245 16.2883 17.94 17.2667C17.8668 17.3476 17.7713 17.4048 17.6655 17.4313C17.5598 17.4577 17.4485 17.4521 17.346 17.4152L15.2362 16.6606C15.086 16.607 14.9259 16.5867 14.7671 16.601C14.6082 16.6154 14.4544 16.6642 14.3163 16.7439C14.1782 16.8236 14.059 16.9324 13.9671 17.0628C13.8753 17.1932 13.8128 17.3419 13.7842 17.4988L13.3816 19.7065C13.3619 19.8137 13.3109 19.9127 13.2349 19.9908C13.1589 20.069 13.0614 20.1228 12.9548 20.1454C11.6661 20.42 10.334 20.42 9.04535 20.1454C8.93858 20.1227 8.84098 20.0687 8.76497 19.9904C8.68897 19.912 8.638 19.8128 8.61855 19.7054L8.21595 17.4988C8.18728 17.3419 8.12484 17.1932 8.03296 17.0628C7.94107 16.9324 7.82194 16.8236 7.68382 16.7439C7.54569 16.6642 7.39188 16.6154 7.23305 16.601C7.07421 16.5867 6.91415 16.607 6.76395 16.6606L4.65415 17.4152C4.55147 17.452 4.44017 17.4574 4.3344 17.4308C4.22863 17.4041 4.13317 17.3466 4.06015 17.2656C3.17569 16.2875 2.50839 15.1333 2.10215 13.8787C2.06862 13.7751 2.06661 13.6638 2.09638 13.5591C2.12614 13.4543 2.18635 13.3607 2.26935 13.2902L3.97985 11.8382C4.10137 11.735 4.19897 11.6065 4.26591 11.4618C4.33285 11.317 4.36752 11.1595 4.36752 11C4.36752 10.8406 4.33285 10.683 4.26591 10.5383C4.19897 10.3935 4.10137 10.2651 3.97985 10.1618L2.26935 8.70982C2.18635 8.6393 2.12614 8.54573 2.09638 8.44096C2.06661 8.33619 2.06862 8.22494 2.10215 8.12132ZM8.80115 11C8.80115 11.5835 9.03294 12.1431 9.44552 12.5557C9.8581 12.9682 10.4177 13.2 11.0012 13.2C11.5846 13.2 12.1442 12.9682 12.5568 12.5557C12.9694 12.1431 13.2012 11.5835 13.2012 11C13.2012 10.4165 12.9694 9.85696 12.5568 9.44438C12.1442 9.0318 11.5846 8.80002 11.0012 8.80002C10.4177 8.80002 9.8581 9.0318 9.44552 9.44438C9.03294 9.85696 8.80115 10.4165 8.80115 11Z" fill="black" fill-opacity="0.55"/>
</svg>
